<svg fill="#000000" width="52" height="52" version="1.1" id="lni_lni-arrow-right" xmlns="http://www.w3.org/2000/svg" xmlns:xlink="http://www.w3.org/1999/xlink"
	 x="0px" y="0px" viewBox="0 0 64 64" style="enable-background:new 0 0 64 64;" xml:space="preserve">
<path d="M61.5,28.5l-6.9-8.2c-0.6-0.7-1.7-0.8-2.5-0.2c-0.7,0.6-0.8,1.7-0.2,2.5l6.5,7.7H3c-1,0-1.8,0.8-1.8,1.8
	c0,1,0.8,1.8,1.8,1.8h55.4l-6.5,7.7c-0.6,0.7-0.5,1.8,0.2,2.5c0.3,0.3,0.7,0.4,1.1,0.4c0.5,0,1-0.2,1.3-0.6l6.9-8.2
	C63.2,33.5,63.2,30.5,61.5,28.5z"/>
</svg>
