<svg fill="#000000" width="52" height="52" version="1.1" id="lni_lni-funnel" xmlns="http://www.w3.org/2000/svg" xmlns:xlink="http://www.w3.org/1999/xlink" x="0px"
	 y="0px" viewBox="0 0 64 64" style="enable-background:new 0 0 64 64;" xml:space="preserve">
<g>
	<path d="M25.2,62.7c-0.5,0-1-0.1-1.5-0.4c-0.8-0.5-1.3-1.3-1.3-2.3V26L4.8,5.6C4.1,4.8,4,3.6,4.5,2.7C4.9,1.8,5.9,1.2,7,1.2h50
		c1.1,0,2.1,0.7,2.6,1.7c0.4,1,0.2,2.1-0.5,2.8L41.7,25.8v25.6c0,0.5-0.2,1.3-1,2l-0.3,0.2l-13.9,8.7C26.1,62.6,25.6,62.7,25.2,62.7
		z M25.3,23.9c0.4,0.5,0.6,1.2,0.6,1.7v33l12.3-7.8V25.7c0-0.4,0-1.2,0.7-1.9l16.4-19H8.7L25.3,23.9z M22.6,26.2
		C22.6,26.2,22.6,26.2,22.6,26.2L22.6,26.2z M56.5,3.4C56.4,3.4,56.4,3.4,56.5,3.4L56.5,3.4z"/>
</g>
</svg>