<svg width="214" height="231" viewBox="0 0 214 231" fill="none" xmlns="http://www.w3.org/2000/svg">
    <path d="M186.846 37.4969L134.731 7.40307C117.679 -2.46769 96.7853 -2.46769 79.7338 7.40307L27.3785 37.4969C10.5671 47.3676 0 65.6647 0 85.1655V145.594C0 165.335 10.5671 183.392 27.3785 193.262L79.4936 223.597C96.5451 233.468 117.439 233.468 134.491 223.597L186.606 193.262C203.657 183.392 213.984 165.335 213.984 145.594V85.1655C214.465 65.6647 203.897 47.3676 186.846 37.4969ZM107.112 169.187C77.5723 169.187 53.5561 145.112 53.5561 115.5C53.5561 85.8877 77.5723 61.8127 107.112 61.8127C136.652 61.8127 160.909 85.8877 160.909 115.5C160.909 145.112 136.892 169.187 107.112 169.187Z" fill="#56FBB1"/>
</svg>
