<?xml version="1.0" encoding="utf-8"?>
<svg fill="#000000" width="52" height="52" version="1.1" id="lni_lni-package" xmlns="http://www.w3.org/2000/svg" xmlns:xlink="http://www.w3.org/1999/xlink" x="0px"
	 y="0px" viewBox="0 0 64 64" style="enable-background:new 0 0 64 64;" xml:space="preserve">
<path d="M62.5,21.1L57.8,6.6c-0.8-2.5-3.1-4.2-5.7-4.2H12.4c-2.5,0-4.8,1.6-5.6,4L1.6,21c-0.2,0.6-0.3,1.1-0.3,1.7v31.4
	c0,4.1,3.3,7.4,7.4,7.4h46.7c4.1,0,7.4-3.3,7.4-7.4V22.7C62.8,22.2,62.7,21.7,62.5,21.1z M54.5,7.7l4.1,12.8H33.8V5.9h18.4
	C53.2,5.9,54.2,6.6,54.5,7.7z M10.1,7.6c0.4-1,1.3-1.7,2.4-1.7h17.8v14.5H5.5L10.1,7.6z M55.3,58.1H8.7c-2.2,0-3.9-1.8-3.9-3.9V23.9
	h54.5v30.2C59.3,56.3,57.5,58.1,55.3,58.1z"/>
</svg>
