<svg
  fill="#fff"
  width="52"
  height="52"
  version="1.1"
  id="lni_lni-warning"
  xmlns="http://www.w3.org/2000/svg"
  xmlns:xlink="http://www.w3.org/1999/xlink"
  x="0px"
  y="0px"
  viewBox="0 0 64 64"
  style="enable-background:new 0 0 64 64;"
  xml:space="preserve"
>
  <g>
    <path
      d="M61.1,42L38.9,11.8c-1.6-2.2-4.2-3.5-6.9-3.5c-2.8,0-5.3,1.3-6.9,3.5L2.9,42c-1.9,2.6-2.2,6.1-0.7,9
		c1.5,2.9,4.4,4.7,7.7,4.7h44.3c3.3,0,6.2-1.8,7.7-4.7S63,44.6,61.1,42z M58.7,49.4c-0.9,1.7-2.6,2.8-4.5,2.8H9.9
		c-2,0-3.7-1-4.5-2.8c-0.9-1.7-0.7-3.7,0.4-5.3l22.1-30.2c1-1.3,2.5-2.1,4.1-2.1c1.6,0,3.1,0.8,4.1,2.1l22.1,30.2
		C59.4,45.7,59.6,47.6,58.7,49.4z"
    />
    <path d="M32,38c1,0,1.8-0.8,1.8-1.8V25c0-1-0.8-1.8-1.8-1.8S30.2,24,30.2,25v11.3C30.2,37.2,31,38,32,38z" />
    <path d="M32,41.3c-1.6,0-2.9,1.3-2.9,2.9c0,1.6,1.3,2.9,2.9,2.9c1.6,0,2.9-1.3,2.9-2.9C34.9,42.6,33.6,41.3,32,41.3z" />
  </g>
</svg>
